<?xml version="1.0" encoding="utf-8"?>
<!-- Generator: Adobe Illustrator 18.0.0, SVG Export Plug-In . SVG Version: 6.00 Build 0)  -->
<!DOCTYPE svg PUBLIC "-//W3C//DTD SVG 1.1//EN" "http://www.w3.org/Graphics/SVG/1.1/DTD/svg11.dtd">
<svg version="1.1" id="Vordergrund" xmlns="http://www.w3.org/2000/svg" xmlns:xlink="http://www.w3.org/1999/xlink" x="0px"
	 y="0px" viewBox="0 0 1024 768" enable-background="new 0 0 1024 768" xml:space="preserve">
<g>
	<path fill="#182F58" d="M678,161.7c-66,0-125.3,28.7-166.1,74.4c-40.8-45.6-100.1-74.4-166.1-74.4c-123,0-222.7,99.7-222.7,222.7
		c0,123,99.7,222.7,222.7,222.7c66,0,125.3-28.7,166.1-74.4c40.8,45.7,100.1,74.4,166.1,74.4c123,0,222.7-99.7,222.7-222.7
		C900.7,261.4,801,161.7,678,161.7z M347.6,559.8c-96.4,0-174.6-78.2-174.6-174.6c0-96.4,78.2-174.6,174.6-174.6
		s174.6,78.2,174.6,174.6C522.2,481.6,444,559.8,347.6,559.8z M759.2,464.1h-43.7l-31.2-73.6l-30.7,73.6h-43.7l-48.5-152H613
		l23.1,78.8l28.9-78.8h39.2L733,391l23.1-78.8h51.6L759.2,464.1z"/>
	<path fill="#182F58" d="M360,299.9H251v172.5h109c48.6,0,98.4-24.4,98.4-86.2C458.4,324.3,408.6,299.9,360,299.9z M353.4,422.2h-48
		v-72.1h48c34.8,0,47.2,14.5,47.2,36C400.6,407.7,388.3,422.2,353.4,422.2z"/>
</g>
</svg>
