<?xml version="1.0" encoding="utf-8"?>
<!-- Generator: Adobe Illustrator 18.0.0, SVG Export Plug-In . SVG Version: 6.00 Build 0)  -->
<!DOCTYPE svg PUBLIC "-//W3C//DTD SVG 1.1//EN" "http://www.w3.org/Graphics/SVG/1.1/DTD/svg11.dtd">
<svg version="1.1" id="Vordergrund" xmlns="http://www.w3.org/2000/svg" xmlns:xlink="http://www.w3.org/1999/xlink" x="0px"
	 y="0px" viewBox="0 0 767.2 439.4" enable-background="new 0 0 767.2 439.4" xml:space="preserve">
<g>
	<path fill="#FFFFFF" d="M544.1,4.5c-63.8,0-121.1,27.8-160.5,71.9C344.2,32.3,286.9,4.5,223.1,4.5C104.2,4.5,7.9,100.8,7.9,219.7
		c0,118.8,96.3,215.2,215.2,215.2c63.8,0,121.1-27.8,160.5-71.9c39.4,44.1,96.7,71.9,160.5,71.9c118.8,0,215.2-96.3,215.2-215.2
		C759.3,100.8,662.9,4.5,544.1,4.5z M224.9,389.2c-93.2,0-168.7-75.5-168.7-168.7c0-93.2,75.5-168.7,168.7-168.7
		s168.7,75.5,168.7,168.7C393.6,313.6,318,389.2,224.9,389.2z M622.6,296.8h-42.2l-30.1-71.1l-29.6,71.1h-42.2l-46.9-146.8h49.8
		l22.4,76.1l27.9-76.1h37.9l27.9,76.1l22.4-76.1h49.8L622.6,296.8z"/>
	<path fill="#FFFFFF" d="M236.8,138H131.5v166.7h105.3c47,0,95.1-23.6,95.1-83.3C331.9,161.7,283.8,138,236.8,138z M230.4,256.2H184
		v-69.6h46.4c33.6,0,45.7,14,45.7,34.8C276.1,242.2,264.2,256.2,230.4,256.2z"/>
</g>
</svg>
